<svg xmlns="http://www.w3.org/2000/svg" width="41.84" height="41.839" viewBox="0 0 41.84 41.839">
  <g id="Group_2796" data-name="Group 2796" transform="translate(-17642.535 5101.63)">
    <circle id="Ellipse_1522" data-name="Ellipse 1522" cx="20.42" cy="20.42" r="20.42" transform="translate(17643.035 -5101.13)" fill="none" stroke="#e6e6e6" stroke-miterlimit="10" stroke-width="1"/>
    <g id="Group_870" data-name="Group 870" transform="translate(17651.785 -5088.383)">
      <path id="Path_5143" data-name="Path 5143" d="M463.07,388.3a.194.194,0,0,1,.053.179,2.357,2.357,0,0,0,.031,1.526,1.928,1.928,0,0,0,1.62,1.354,9.7,9.7,0,0,0,1.259.024c.3,0,.6,0,.912,0v-.014c.538,0,1.135.005,1.329.008,1.256.024-.18,1.594.054,5.546.134,2.262,2.212,2.971,2.884,1.329a11,11,0,0,0,.444-1.433,9.318,9.318,0,0,1,3.366-5.484,4.651,4.651,0,0,1,2.341-.79h.082a.432.432,0,0,0,.431-.431v-9.83a.432.432,0,0,0-.431-.431h-.083c-2.956-.308-2.925-1.426-6.2-1.453q-1.539-.013-3.077-.005c-.577,0-1.154,0-1.732,0a1.943,1.943,0,0,0-1.739.873,2.279,2.279,0,0,0-.3,1.976c.027.1.032.153-.083.208a2.042,2.042,0,0,0-1.115,1.339,2.323,2.323,0,0,0,.034,1.421C461.492,385.471,462.556,388,463.07,388.3Z" transform="translate(-462.256 -378.39)" fill="none" stroke="#e6e6e6" stroke-miterlimit="10" stroke-width="1" fill-rule="evenodd"/>
      <rect id="Rectangle_777" data-name="Rectangle 777" width="6.732" height="11.358" rx="0.475" transform="translate(16.363 1.129)" fill="none" stroke="#e6e6e6" stroke-miterlimit="10" stroke-width="1"/>
    </g>
  </g>
</svg>
