<svg xmlns="http://www.w3.org/2000/svg" width="41.84" height="41.839" viewBox="0 0 41.84 41.839">
  <g id="Group_2795" data-name="Group 2795" transform="translate(-17594.891 5101.63)">
    <circle id="Ellipse_1521" data-name="Ellipse 1521" cx="20.42" cy="20.42" r="20.42" transform="translate(17595.391 -5101.13)" fill="none" stroke="#e6e6e6" stroke-miterlimit="10" stroke-width="1"/>
    <g id="Group_869" data-name="Group 869" transform="translate(17604.271 -5092.623)">
      <path id="Path_5142" data-name="Path 5142" d="M453.532,386.751a.192.192,0,0,1-.053-.179,2.352,2.352,0,0,0-.031-1.525,1.928,1.928,0,0,0-1.62-1.354,9.4,9.4,0,0,0-1.259-.024c-.3,0-.6,0-.912,0v.014c-.538,0-1.135-.005-1.329-.01-1.256-.022.18-1.594-.054-5.544-.134-2.263-2.212-2.973-2.884-1.331a10.69,10.69,0,0,0-.442,1.435,9.325,9.325,0,0,1-3.367,5.483,4.62,4.62,0,0,1-2.341.79h-.082a.432.432,0,0,0-.43.432v9.829a.432.432,0,0,0,.43.432h.083c2.956.306,2.925,1.426,6.2,1.453q1.539.013,3.077.005c.577,0,1.154,0,1.732,0a1.945,1.945,0,0,0,1.739-.871,2.274,2.274,0,0,0,.3-1.976c-.027-.1-.032-.153.083-.209a2.039,2.039,0,0,0,1.115-1.337,2.33,2.33,0,0,0-.034-1.423C455.109,389.577,454.046,387.052,453.532,386.751Z" transform="translate(-431.251 -375.899)" fill="none" stroke="#e6e6e6" stroke-miterlimit="10" stroke-width="1" fill-rule="evenodd"/>
      <rect id="Rectangle_776" data-name="Rectangle 776" width="6.732" height="11.358" rx="0.475" transform="translate(0 8.272)" fill="none" stroke="#e6e6e6" stroke-miterlimit="10" stroke-width="1"/>
    </g>
  </g>
</svg>
