<svg xmlns="http://www.w3.org/2000/svg" width="46.5" height="46.5" viewBox="0 0 46.5 46.5">
  <g id="Group_2799" data-name="Group 2799" transform="translate(-1429.33 -1007.074)">
    <circle id="Ellipse_3650" data-name="Ellipse 3650" cx="23.25" cy="23.25" r="23.25" transform="translate(1429.33 1007.074)" fill="#e6e6e6"/>
    <g id="Group_2784" data-name="Group 2784" transform="translate(1448.063 1014.587)">
      <path id="Path_5093" data-name="Path 5093" d="M622.143,1312.079c.013,2.352-1.75,4.2-4.578,4.2a4.153,4.153,0,0,1-4.458-4.2c-.014-2.424,1.759-4.21,4.52-4.21A4.174,4.174,0,0,1,622.143,1312.079Zm-8.965,20.646V1323.2a4.446,4.446,0,0,1,4.447-4.447h0a4.445,4.445,0,0,1,4.445,4.447v9.527a4.444,4.444,0,0,1-4.445,4.445h0A4.446,4.446,0,0,1,613.178,1332.725Z" transform="translate(-613.106 -1307.869)" fill="#181818"/>
    </g>
  </g>
</svg>
