<svg xmlns="http://www.w3.org/2000/svg" width="47.603" height="47.601" viewBox="0 0 47.603 47.601">
  <g id="Group_437" data-name="Group 437" transform="translate(-1282.071 -338.588)">
    <g id="Group_436" data-name="Group 436">
      <g id="Group_431" data-name="Group 431">
        <path id="Path_4851" data-name="Path 4851" d="M1305.872,386.189a23.8,23.8,0,1,1,12.677-43.947,1.006,1.006,0,1,1-1.073,1.7,21.79,21.79,0,1,0,1.286,36.014,1.005,1.005,0,0,1,1.189,1.621A23.6,23.6,0,0,1,1305.872,386.189Z" fill="#0098d6"/>
      </g>
      <g id="Group_432" data-name="Group 432">
        <path id="Path_4852" data-name="Path 4852" d="M1322.819,378.638a1.007,1.007,0,0,1-.746-1.68,21.79,21.79,0,0,0,.239-28.871,1.005,1.005,0,0,1,1.518-1.319,23.8,23.8,0,0,1-.26,31.536A1.01,1.01,0,0,1,1322.819,378.638Z" fill="#0098d6"/>
      </g>
      <g id="Group_433" data-name="Group 433">
        <path id="Path_4853" data-name="Path 4853" d="M1319.165,375.5a1.006,1.006,0,0,1-.711-1.717,16.129,16.129,0,0,0,0-22.785,1.006,1.006,0,0,1,1.422-1.422,18.143,18.143,0,0,1,0,25.629A1,1,0,0,1,1319.165,375.5Z" fill="#0098d6"/>
      </g>
      <g id="Group_434" data-name="Group 434">
        <path id="Path_4854" data-name="Path 4854" d="M1314.708,371.04a1.006,1.006,0,0,1-.711-1.717,9.818,9.818,0,0,0,0-13.87,1.006,1.006,0,0,1,1.422-1.422,11.83,11.83,0,0,1,0,16.714A1,1,0,0,1,1314.708,371.04Z" fill="#0098d6"/>
      </g>
      <g id="Group_435" data-name="Group 435">
        <path id="Path_4855" data-name="Path 4855" d="M1309.6,371.04a1,1,0,0,1-.665-.251l-4.65-4.094h-5.079a1.006,1.006,0,0,1-1.006-1.006v-7.241a1,1,0,0,1,1.006-1.005h4.715l5.108-3.529a1.007,1.007,0,0,1,1.577.829v15.292a1,1,0,0,1-.592.916A1.024,1.024,0,0,1,1309.6,371.04Zm-9.388-6.357h4.454a1.006,1.006,0,0,1,.663.25l3.265,2.875V356.66l-3.788,2.617a1,1,0,0,1-.571.178h-4.023Z" fill="#0098d6"/>
      </g>
    </g>
  </g>
</svg>
